:SAMPLES-PER-SECOND 30
:FULLY-SPECIFIED
:DEGREES
31
root  -64.7806 21.209 1.76118 126.611 78.5767 144.56
RightUpLeg  -59.6135 4.01516 -1.62487
RightLeg  112.275 17.2575 -12.2496
RightFoot  -31.7671 0.503338 3.07442
RightToes  -2.32832e-010 -1.59028e-015 9.93923e-017
Spine  63.1249 -2.00644 -2.51906
Spine1  8.83573 -4.35977 1.40994
HEad  -27.0408 0.618654 7.09421
LeftShoulder1  9.93923e-017 0 1.22299e-017
LeftArm  -3.66602 -56.1762 -72.9033
LeftForeArm  -129.198 -49.6484 167.27
LeftHand  0.558842 5.25054 10.4018
RightShoulder  1.98785e-016 -4.96962e-017 1.55301e-017
RightArm  -35.2899 40.4207 68.5481
RightForeArm  53.0483 41.9115 -163.642
RightHand  1.14318 -10.8759 -3.51866
LeftUpLeg  -51.2436 -11.6864 9.52517
LeftLeg  128.882 4.60916 -22.6977
LeftFoot  5.87359 3.42301 -19.8419
LeftToes  1.49248e-009 -4.82331e-011 8.60243e-011
32
root  -63.6266 20.9556 1.93965 117.455 77.6963 137.425
RightUpLeg  -55.428 4.17801 -2.12325
RightLeg  115.303 17.971 -11.9627
RightFoot  -34.6356 0.822823 4.33679
RightToes  -2.32832e-010 -1.59028e-015 9.93923e-017
Spine  62.6548 -1.1768 -3.15517
Spine1  10.0412 -3.44282 -1.36644
HEad  -25.5472 0.164728 7.2326
LeftShoulder1  9.93923e-017 0 1.22299e-017
LeftArm  -3.80666 -54.7608 -72.2987
LeftForeArm  -129.717 -49.3976 167.504
LeftHand  0.576449 5.28951 9.90666
RightShoulder  1.98785e-016 -4.96962e-017 1.55301e-017
RightArm  -34.0833 39.2706 69.9043
RightForeArm  53.7827 41.8582 -163.76
RightHand  1.1708 -10.8833 -4.18459
LeftUpLeg  -58.3661 -8.73905 4.04291
LeftLeg  127.578 1.61614 -20.2051
LeftFoot  -4.69805 1.34344 -17.6676
LeftToes  1.49248e-009 -4.82331e-011 8.60243e-011
33
root  -62.5965 20.5145 2.11943 111.75 76.0936 133.815
RightUpLeg  -52.2432 3.98617 -3.02719
RightLeg  119.241 18.7832 -11.3907
RightFoot  -35.3558 1.2423 6.32132
RightToes  -2.32832e-010 -1.59028e-015 9.93923e-017
Spine  62.8517 -0.399146 -4.31831
Spine1  10.489 -2.73859 -3.71717
HEad  -24.503 -0.265472 7.12304
LeftShoulder1  9.93923e-017 0 1.22299e-017
LeftArm  -4.66062 -53.8023 -71.2182
LeftForeArm  -130.125 -49.3576 167.565
LeftHand  0.603564 5.37477 9.44813
RightShoulder  1.98785e-016 -4.96962e-017 1.55301e-017
RightArm  -33.5218 38.2655 70.301
RightForeArm  54.1691 41.9816 -163.657
RightHand  1.2134 -11.0016 -4.84207
LeftUpLeg  -65.616 -6.89747 -1.84524
LeftLeg  123.051 -3.46178 -16.2171
LeftFoot  -10.0397 0.375751 -13.6926
LeftToes  1.49248e-009 -4.82331e-011 8.60243e-011
34
root  -61.7005 19.8533 2.2151 108.227 74.806 132.729
RightUpLeg  -49.5864 3.58146 -3.66171
RightLeg  123.836 19.5193 -10.461
RightFoot  -34.9084 1.63246 8.47018
RightToes  -2.32832e-010 -1.59028e-015 9.93923e-017
Spine  63.7573 0.0481088 -5.04399
Spine1  10.3551 -2.22227 -5.28966
HEad  -23.891 -0.347522 6.79084
LeftShoulder1  9.93923e-017 0 1.22299e-017
LeftArm  -5.60086 -53.2951 -70.1079
LeftForeArm  -130.095 -49.5437 167.418
LeftHand  0.611565 5.40633 9.39478
RightShoulder  1.98785e-016 -4.96962e-017 1.55301e-017
RightArm  -33.3296 37.7643 70.1086
RightForeArm  54.0293 42.2156 -163.389
RightHand  1.3328 -11.8737 -4.84078
LeftUpLeg  -71.0235 -6.21065 -6.46335
LeftLeg  115.62 -8.18393 -11.6889
LeftFoot  -12.5432 0.0460104 -10.8597
LeftToes  1.49248e-009 -4.82331e-011 8.60243e-011
35
root  -60.8476 19.0265 2.20772 104.83 74.281 131.778
RightUpLeg  -47.0346 2.68919 -3.6772
RightLeg  128.405 20.4226 -9.78568
RightFoot  -34.6522 1.92127 10.0802
RightToes  -2.32832e-010 -1.59028e-015 9.93923e-017
Spine  64.6621 0.232381 -5.08957
Spine1  10.4576 -1.77175 -6.41701
HEad  -23.7525 -0.0276049 6.71091
LeftShoulder1  9.93923e-017 0 1.22299e-017
LeftArm  -6.66212 -53.2437 -69.0527
LeftForeArm  -130.415 -49.6208 167.381
LeftHand  0.482071 4.94241 10.6126
RightShoulder  1.98785e-016 -4.96962e-017 1.55301e-017
RightArm  -33.0597 37.6652 70.0308
RightForeArm  53.5157 42.342 -163.207
RightHand  1.50958 -13.4181 -4.27861
LeftUpLeg  -74.4537 -5.71304 -9.29618
LeftLeg  107.053 -11.239 -7.27057
LeftFoot  -13.0663 -0.00503522 -10.9249
LeftToes  1.49248e-009 -4.82331e-011 8.60243e-011
36
root  -60.0714 18.115 2.12937 101.144 74.1452 129.882
RightUpLeg  -45.3601 1.33974 -3.38418
RightLeg  132.689 21.865 -9.69561
RightFoot  -34.4787 2.12846 11.2515
RightToes  -2.32832e-010 -1.59028e-015 9.93923e-017
Spine  64.6892 0.24949 -4.98723
Spine1  11.5707 -1.26573 -7.65803
HEad  -24.0619 0.349689 6.98505
LeftShoulder1  9.93923e-017 0 1.22299e-017
LeftArm  -7.3512 -53.5489 -68.3557
LeftForeArm  -130.803 -49.5853 167.437
LeftHand  0.410981 4.69043 11.1138
RightShoulder  1.98785e-016 -4.96962e-017 1.55301e-017
RightArm  -32.4402 37.8164 70.3956
RightForeArm  53.221 42.3207 -163.206
RightHand  1.67683 -14.9453 -3.81344
LeftUpLeg  -76.6839 -5.21867 -10.9839
LeftLeg  98.8233 -12.8156 -2.69431
LeftFoot  -13.188 -0.0171515 -10.8608
LeftToes  1.49248e-009 -4.82331e-011 8.60243e-011
37
root  -59.4276 17.1687 1.99653 97.3658 74.1828 127.162
RightUpLeg  -45.2044 0.0575213 -3.03147
RightLeg  136.974 23.5439 -9.61277
RightFoot  -33.478 2.21118 12.2674
RightToes  -2.32832e-010 -1.59028e-015 9.93923e-017
Spine  64.0644 0.0955589 -4.9453
Spine1  13.6201 -0.688378 -8.99797
HEad  -24.5998 0.51933 7.21885
LeftShoulder1  9.93923e-017 0 1.22299e-017
LeftArm  -7.72707 -54.0028 -68.0765
LeftForeArm  -130.749 -49.5979 167.424
LeftHand  0.453827 4.83059 10.6935
RightShoulder  1.98785e-016 -4.96962e-017 1.55301e-017
RightArm  -31.5144 38.1677 71.1082
RightForeArm  53.195 42.2597 -163.272
RightHand  1.79093 -16.1281 -3.37051
LeftUpLeg  -77.6699 -5.09179 -11.7887
LeftLeg  91.6284 -13.2059 1.95943
LeftFoot  -13.5731 -0.0532518 -9.71426
LeftToes  1.49248e-009 -4.82331e-011 8.60243e-011
38
root  -58.7975 16.2361 1.79119 93.3643 74.5637 123.904
RightUpLeg  -45.4656 -0.701686 -2.77798
RightLeg  141.397 24.6443 -8.85239
RightFoot  -31.9035 2.18004 13.1198
RightToes  -2.32832e-010 -1.59028e-015 9.93923e-017
Spine  63.5514 -0.226914 -4.72279
Spine1  15.7425 -0.139951 -10.1853
HEad  -25.2151 0.580404 7.15063
LeftShoulder1  9.93923e-017 0 1.22299e-017
LeftArm  -8.19195 -54.5365 -68.0582
LeftForeArm  -130.175 -49.6748 167.321
LeftHand  0.472683 4.89239 10.4932
RightShoulder  1.98785e-016 -4.96962e-017 1.55301e-017
RightArm  -30.6462 38.6641 71.8753
RightForeArm  52.7105 42.1958 -163.302
RightHand  1.84807 -17.147 -2.63824
LeftUpLeg  -77.4939 -5.43 -11.6011
LeftLeg  86.6841 -12.8634 5.66845
LeftFoot  -11.8541 0.0826669 -8.60716
LeftToes  1.49248e-009 -4.82331e-011 8.60243e-011
